<?xml version="1.0" encoding="iso-8859-1"?>
<!-- Uploaded to: SVG Repo, www.svgrepo.com, Generator: SVG Repo Mixer Tools -->
<!DOCTYPE svg PUBLIC "-//W3C//DTD SVG 1.1//EN" "http://www.w3.org/Graphics/SVG/1.1/DTD/svg11.dtd">
<svg fill="#000000" version="1.1" id="Capa_1" xmlns="http://www.w3.org/2000/svg" xmlns:xlink="http://www.w3.org/1999/xlink" 
	 width="800px" height="800px" viewBox="0 0 108.343 108.344"
	 xml:space="preserve">
<g>
	<g>
		<path d="M94.989,78.615c-0.036-0.375-0.14-0.762-0.315-1.12l-0.188-0.382l-5.502-11.221c-0.066-0.137-0.145-0.277-0.225-0.408
			c-1.446-2.366-4.26,0.129-5.803-2.797c-0.289-0.549-0.49-1.224-0.234-1.873l3.742-12.057l-0.194-0.097
			c0.09-0.105,0.176-0.211,0.267-0.316l-0.156-0.85l1.529,0.662L84,59.859c-0.486,1.475,0.215,3.113,1.664,3.748
			c1.539,0.676,3.332-0.024,4.006-1.563l6.828-14.652c0.768-1.764,0.077-3.867-1.644-4.806l-0.315-0.172l-11.145-6.071
			c-1.639-2.322-4.206-3.873-7.066-4.197c0.229-0.018,0.456-0.028,0.688-0.061c5.984-0.838,10.158-6.371,9.318-12.356
			S79.962,9.571,73.978,10.41c-5.986,0.838-10.158,6.371-9.319,12.355c0.712,5.08,4.808,8.841,9.687,9.354
			c-0.313,0.027-0.631,0.066-0.948,0.124c-3.209,0.587-5.771,2.644-7.142,5.344c1.131,0.39,2.086,1.214,2.6,2.335l0.396,0.867
			c0.125,0.265,0.297,0.643,0.472,1.127c0.159,0.411,0.354,0.922,0.522,1.544c0.154,0.472,0.299,1.126,0.447,2.063l0.021,0.2
			c0.033,0.385,0.065,0.772,0.076,1.189l0.002,0.051l-0.019,0.383c-0.015,0.375-0.032,0.8-0.134,1.302
			c-0.197,1.33-0.859,2.776-1.809,3.909c-0.509,0.619-1.082,1.107-1.652,1.498l1.832,10.023c0.307,1.682,1.023,3.182,2.018,4.432
			l0.268,13.06l-7.407,18.727c-0.616,1.572,0.056,3.395,1.596,4.161c1.629,0.812,3.604,0.147,4.416-1.481l9.424-18.934
			c0.164-0.33,0.277-0.704,0.315-1.092l0.045-0.448L80.72,72.14c0.101-0.019,0.195-0.048,0.296-0.069l5.39,8.815l4.167,21.222
			c0.326,1.633,1.843,2.805,3.538,2.646c1.812-0.169,3.145-1.773,2.977-3.586L94.989,78.615z"/>
		<path d="M66.253,37.969c-0.01-0.005-0.021-0.011-0.03-0.015c-0.015,0.07-0.044,0.132-0.062,0.2
			C66.191,38.092,66.223,38.03,66.253,37.969z"/>
		<path d="M67.927,52.224c0.892-1.063,1.406-2.354,1.562-3.396c0.111-0.547,0.101-0.991,0.128-1.475
			c-0.011-0.436-0.05-0.838-0.084-1.238c-0.115-0.729-0.249-1.407-0.423-1.945c-0.153-0.574-0.335-1.039-0.494-1.451
			c-0.151-0.424-0.305-0.764-0.434-1.037c-0.253-0.552-0.397-0.867-0.397-0.867c-0.646-1.414-2.229-2.213-3.791-1.82
			c-1.763,0.442-2.832,2.229-2.392,3.992l0.065,0.259c0,0,0.063,0.253,0.174,0.695c0.062,0.222,0.125,0.487,0.168,0.776
			c0.057,0.294,0.121,0.625,0.136,0.943c0.047,0.324,0.028,0.61,0.022,0.896c-0.006-0.008-0.01-0.016-0.024-0.02
			c-0.082-0.029-0.31-0.024-0.634-0.074c-0.307-0.037-0.686-0.109-1.074-0.205c-0.385-0.088-0.792-0.216-1.178-0.338
			c-0.387-0.129-0.762-0.266-1.108-0.402c-0.101-0.039-0.188-0.078-0.284-0.116c-0.449-1.958-1.554-3.741-3.186-5.015
			c5.2,0.721,10.216-2.613,11.474-7.822c0.899-3.732-0.36-7.485-2.97-9.952c-2.479-2.774-6.448-3.987-10.214-2.766
			c-0.158,0.051-0.314,0.107-0.469,0.165c0.158-0.739,0.072-1.4-0.283-2.03c-0.225-0.383-0.588-0.764-1.117-1.03
			c-0.527-0.27-1.248-0.396-1.918-0.294c-0.678,0.093-1.242,0.375-1.684,0.647c-0.447,0.284-0.784,0.574-1.08,0.861
			c-0.58,0.577-0.986,1.119-1.344,1.645c-0.701,1.051-1.205,2.046-1.656,3.021c-0.443,0.975-0.813,1.928-1.167,2.843
			c-0.31,0.819-0.614,1.595-0.923,2.311c-0.311-0.117-0.637-0.202-0.986-0.22c0,0-0.487-0.024-1.342-0.066
			c-0.418-0.034-0.964-0.019-1.592,0.003c-0.611-0.005-1.374,0.102-2.193,0.213c-0.42,0.072-0.889,0.202-1.357,0.319
			c-0.465,0.106-1.014,0.365-1.535,0.577c-0.26,0.099-0.554,0.302-0.83,0.463c-0.282,0.188-0.563,0.322-0.842,0.58
			c-0.279,0.241-0.557,0.496-0.826,0.762c-0.266,0.271-0.498,0.611-0.734,0.937c-0.915,1.341-1.342,2.995-1.388,4.394
			c-0.036,1.387,0.167,2.623,0.443,3.739c0.295,1.087,0.646,2.119,1.046,3.035c0.392,0.938,0.82,1.792,1.247,2.607
			c0.864,1.61,1.747,3.007,2.534,4.176c0.787,1.168,1.48,2.104,1.984,2.763c0.26,0.332,0.464,0.593,0.604,0.771
			c0.154,0.189,0.238,0.29,0.238,0.29l0.061,0.076c0.134,0.16,0.279,0.314,0.435,0.46c0.081,0.075,0.165,0.142,0.249,0.21
			l-0.443,0.997l0,0L11.242,75.386c0,0,2.198,2.683,5.9,5.779l-0.804,0.985l-0.249,0.306c-0.631,0.78-0.95,1.812-0.803,2.883
			l2.319,16.905c0.22,1.611,1.603,2.853,3.273,2.851c1.821-0.004,3.296-1.481,3.293-3.305l-0.024-15.058l0.393-0.438
			c3.851,2.138,8.326,3.805,13.142,4.063l8.511,16.224c0.793,1.503,2.628,2.178,4.217,1.496c1.672-0.72,2.443-2.656,1.725-4.327
			l-6.199-14.421c1.738-0.543,3.496-1.306,5.266-2.333l2.433-27.676l2.056-4.639c0.518,0.101,1.084,0.195,1.697,0.277
			c0.637,0.079,1.309,0.154,2.055,0.184c0.736,0.032,1.533,0.031,2.418-0.06c0.865-0.081,1.85-0.26,2.916-0.667
			C65.82,54.021,67.026,53.319,67.927,52.224z M55.137,24.9c2.389,4.287,7.969,2.132,9.586,1.391
			c0.823,1.843,1.075,3.957,0.567,6.066c-0.553,2.289-1.904,4.178-3.684,5.453c0.104-1.099-1.283-2.178-3.137-2.417
			c-1.879-0.244-3.52,0.461-3.664,1.578c-0.143,1.101,1.227,2.185,3.068,2.446c-1.287,0.252-2.646,0.244-4.001-0.084
			c-3.681-0.889-6.327-3.83-7.042-7.314C47.77,31.667,55.725,28.575,55.137,24.9z M40.525,43.751
			c-0.77-0.877-1.631-1.925-2.441-3.06c-0.393-0.565-0.793-1.153-1.128-1.737c-0.36-0.591-0.627-1.163-0.867-1.703
			c-0.214-0.525-0.334-0.984-0.4-1.287c-0.042-0.289-0.044-0.3-0.106-0.318c0.001,0.002-0.041-0.016-0.037-0.029
			c0.014-0.01,0.017-0.027,0.014-0.057c-0.021-0.034,0.063-0.055,0.082-0.094c0.047-0.033,0.035-0.087,0.121-0.121
			c0.158-0.068,0.231-0.184,0.439-0.252c0.199-0.07,0.365-0.162,0.571-0.229c0.446-0.109,0.839-0.244,1.276-0.291
			c0.412-0.068,0.773-0.134,1.105-0.146c0.089-0.007,0.16-0.013,0.239-0.02c0.22,0.053,0.45,0.093,0.688,0.11
			c0.121,0.01,0.241-0.002,0.361-0.004c-0.1,0.655-0.168,1.399-0.188,2.201c-0.004,0.449,0.008,0.916,0.039,1.389
			c0.052,0.478,0.076,0.954,0.181,1.438c0.081,0.48,0.183,0.957,0.329,1.423c0.119,0.466,0.29,0.913,0.469,1.34
			c0.157,0.433,0.371,0.825,0.572,1.196c0.102,0.184,0.199,0.361,0.294,0.535c0.111,0.162,0.22,0.318,0.323,0.469
			c0.211,0.295,0.392,0.574,0.578,0.797c0.193,0.217,0.361,0.405,0.5,0.561c0.279,0.305,0.438,0.479,0.438,0.479
			c0.753,0.822,1.994,1.07,3.026,0.524c1.227-0.648,1.695-2.168,1.047-3.394l-0.221-0.416c0,0-0.064-0.124-0.18-0.342
			c-0.059-0.105-0.129-0.234-0.211-0.381c-0.075-0.148-0.127-0.33-0.205-0.516c-0.037-0.092-0.076-0.188-0.116-0.287
			c-0.024-0.104-0.052-0.211-0.078-0.322c-0.058-0.219-0.125-0.442-0.144-0.691c-0.037-0.24-0.074-0.486-0.068-0.748
			c-0.021-0.254-0.01-0.518,0.012-0.783c0-0.074,0.012-0.15,0.02-0.225c-1.275-1.564-2.316-3.553-2.984-5.662
			c0.213-0.176,0.417-0.354,0.604-0.535c0.497-0.482,0.906-0.982,1.28-1.475c0.013-0.017,0.022-0.031,0.032-0.049
			c0.269,3.018,1.859,5.774,4.309,7.523c-0.623-0.061-1.244-0.072-1.855-0.004l-0.049,0.463c-0.018,0.248-0.031,0.475-0.016,0.666
			l0.006,0.06l-0.002,0.06c-0.002,0.158,0.021,0.328,0.057,0.55l0.01,0.091c0.008,0.105,0.042,0.233,0.082,0.383l0.176,0.572
			c0.031,0.075,0.065,0.166,0.098,0.256c0.021,0.059,0.039,0.115,0.064,0.165l0.602,1.123c0.947,1.788,0.262,4.013-1.527,4.958
			c-0.526,0.279-1.118,0.427-1.711,0.427c-0.674,0-1.32-0.202-1.887-0.542c-0.251-0.461-0.575-0.893-0.979-1.27
			c0,0-0.063-0.059-0.177-0.166c-0.126-0.123-0.311-0.307-0.546-0.538c-0.283-0.286-0.646-0.664-1.053-1.103l-0.072-0.105
			l-0.292-0.533c-0.01-0.018-0.021-0.039-0.03-0.059l-0.079,0.178C40.791,44.05,40.662,43.907,40.525,43.751z M62.023,46.847
			c0.048-0.077,0.089-0.136,0.119-0.184C62.08,46.796,61.923,46.995,62.023,46.847z"/>
		<path d="M31.104,19.369l-3.75,7.097c-0.105,0.003-0.209,0.018-0.313,0.023c0.005,0.021,0.009,0.043,0.015,0.064l0.398-0.091
			l12.015-3.558l-0.282-0.955l-9.863,2.921l3.172-6.002l-5.6-2.319l5.98-3.794l-2.472-6.018l7.604,5.358l0.804-8.925l4.457,7.563
			l6.039-4.051l0.45,8.017l0.993-0.055l-0.548-9.761L43.59,9.32L38.098,0l-0.927,10.29l-8.983-6.332l3.451,8.404l-6.895,4.374
			L31.104,19.369z"/>
	</g>
</g>
</svg>