<?xml version="1.0" encoding="iso-8859-1"?>
<!-- Uploaded to: SVG Repo, www.svgrepo.com, Generator: SVG Repo Mixer Tools -->
<!DOCTYPE svg PUBLIC "-//W3C//DTD SVG 1.1//EN" "http://www.w3.org/Graphics/SVG/1.1/DTD/svg11.dtd">
<svg fill="#000000" version="1.1" id="Capa_1" xmlns="http://www.w3.org/2000/svg" xmlns:xlink="http://www.w3.org/1999/xlink" 
	 width="800px" height="800px" viewBox="0 0 117.96 117.961"
	 xml:space="preserve">
<g>
	<path d="M26.021,103.406c0.012,0.371,0.021,0.744,0.035,1.115H12.275V7.914h76.234L98.003,0l0.713,0.855l-9.815,8.183v21.076
		c1.701-0.888,3.685-1.273,5.726-0.967c5.121,0.77,8.649,5.545,7.881,10.666c-0.771,5.122-5.545,8.649-10.666,7.881
		c-2.957-0.444-5.377-2.229-6.75-4.64l0.006,0.342l-5.684,0.109L79.4,42.844l5.52-0.106c-0.883-1.697-1.267-3.674-0.959-5.711
		c0.381-2.525,1.735-4.661,3.625-6.088V9.027H13.389v94.379H26.021z M105.361,77.066c0.124,1.648-0.715,3.295-2.271,4.119
		c-0.058,0.031-0.129,0.066-0.188,0.096l-0.641,0.3c-0.944,0.716-2.038,1.245-3.233,1.521l-5.59,2.625l-2.499,3.045l7.466,7.031
		c1.136,1.068,1.188,2.854,0.12,3.991c-0.994,1.056-2.62,1.166-3.755,0.317l-5.869-4.416v8.39l9.906,13.209l-0.894,0.667
		l-10.078-13.439h-1.969l1.002,8.176c0.189,1.548-0.91,2.957-2.457,3.146c-1.461,0.181-2.801-0.803-3.104-2.212l-1.943-9.107H65.886
		c-0.014-0.373-0.016-0.744-0.022-1.115h13.265l-1.646-7.715c-0.198-0.93,0.021-1.853,0.528-2.569l0.169-0.237l2.442-3.42
		l-0.133-0.102c-1.621-1.219-1.943-3.52-0.726-5.137c0.329-0.439,0.739-0.783,1.192-1.026l0.282-0.147l6.386-3.391l1.402-1.965
		c-0.07-0.19-0.131-0.387-0.189-0.584l4.938-4.506l5.813-5.521c-0.215-0.438-0.408-0.876-0.592-1.316
		c-0.143,0.543-0.43,1.028-0.822,1.401l-5.963,5.664l-3.017,2.815l-1.538,1.408l-0.8,0.715l-0.453,0.388l-0.3,0.249
		c-0.259,0.201-0.546,0.379-0.835,0.52c-1.324,0.562-2.853-0.058-3.412-1.382c-0.562-1.323,0.058-2.853,1.381-3.413
		c-0.153,0.038-0.305,0.113-0.428,0.211l-0.043,0.036l0.019-0.019l0.034-0.036l0.07-0.075l0.297-0.311l0.66-0.719l1.346-1.498
		l2.69-3.06l4.341-5.015l-0.12-1.961c-0.02-0.023-0.04-0.045-0.059-0.068l0.045,0.738l-3.75,4.334l-0.161-8.708l-4.304,1.007
		l-0.443,0.104c-1.689,0.396-3.381-0.655-3.776-2.346c-0.043-0.188-0.069-0.395-0.079-0.582l-0.388-9.139
		c-0.062-1.441,1.06-2.66,2.5-2.722c1.289-0.055,2.399,0.835,2.664,2.054l1.076,4.939l7.403-2.542
		c0.295-0.102,0.596-0.162,0.894-0.192c0.896-0.337,1.858-0.538,2.868-0.557c0.056-0.002,0.109-0.002,0.162-0.002
		c4.676,0,8.509,3.746,8.593,8.44l0.334,18.118C105.701,75.434,105.585,76.271,105.361,77.066z M87.585,94.704l-0.937-0.705
		l-1.802,2.194l0.884,7.213h1.854V94.704z M78.298,42.011c0.016-0.019,1.57-1.896,0.027-4.386c-0.633-1.025-0.642-1.59-0.537-1.885
		c0.104-0.292,0.351-0.379,0.359-0.383l-0.102-0.314l-0.099-0.316c-0.057,0.018-0.555,0.187-0.774,0.771
		c-0.234,0.628-0.037,1.461,0.592,2.476c1.281,2.07,0.08,3.549,0.027,3.609L78.298,42.011z M79.792,39.573l0.504,0.429
		c0.016-0.019,1.57-1.895,0.028-4.386c-0.635-1.024-0.643-1.59-0.538-1.884c0.104-0.292,0.35-0.38,0.358-0.384l-0.103-0.314
		l-0.098-0.316c-0.056,0.019-0.555,0.187-0.773,0.771c-0.235,0.629-0.037,1.462,0.59,2.477
		C81.044,38.034,79.841,39.513,79.792,39.573z M82.565,21.766h-8.167h-0.5h-8.167v-3.188h2.166v-2.701h8.668v2.701h6V21.766z
		 M73.898,19.079h-7.667v2.188h7.667V19.079z M76.065,18.563v-2.186h-7.668v2.186H76.065z M82.065,19.079h-7.667v2.188h7.667V19.079
		z M26.981,35.424v2.703h4v3.186h-6.166h-0.5h-8.168v-3.186h2.167v-2.703H26.981z M24.315,38.627h-7.668v2.186h7.668V38.627z
		 M26.481,38.112v-2.188h-7.667v2.188H26.481z M24.815,38.627v2.186h5.666v-2.186H24.815z M41.107,19.91
		c-5.28,0.875-8.853,5.863-7.979,11.144c0.874,5.281,5.863,8.854,11.145,7.979c5.279-0.873,8.852-5.863,7.979-11.143
		C51.377,22.608,46.388,19.036,41.107,19.91z M70.448,84.05c-5.877,0-10.642-5.397-10.642-12.056c0-3.292,1.835-7.053,4.066-9.631
		l-3.988,1.027c-1.094,0.282-2.201-0.062-2.943-0.806l-0.266-0.269l-5.258-5.292l-0.034,10.053
		c-0.005,1.082-0.211,2.112-0.566,3.069c0.082,0.279,0.143,0.57,0.171,0.873c0.012,0.129,0.019,0.264,0.02,0.389l0.282,34.938
		c0.014,1.611-1.281,2.928-2.894,2.94c-1.521,0.012-2.779-1.153-2.927-2.64l-2.777-28.955l-2.861,28.32
		c-0.162,1.602-1.593,2.77-3.195,2.607c-1.513-0.152-2.639-1.447-2.623-2.938l0.433-34.668c0-0.068,0.01-0.137,0.014-0.205
		c-0.542-1.154-0.852-2.438-0.847-3.795l0.033-9.452c-0.245,0.561-0.481,1.162-0.706,1.769c-0.27,0.731-0.523,1.47-0.762,2.19
		c-0.477,1.444-0.889,2.819-1.225,3.996c-0.335,1.176-0.592,2.16-0.747,2.811c-0.064,0.279-0.114,0.5-0.148,0.648l-0.009,0.033
		l-0.001-0.02l-0.002-0.016c-0.001-0.012-0.003,0.016-0.002-0.068c-0.006-0.231-0.038-0.35-0.038-0.35
		c0.243,1.467-0.747,2.854-2.212,3.096c-0.038,0.008-0.076,0.004-0.114,0.009l-0.622,2.142l-0.502-0.146l1.438,2.436
		C24.25,86.811,21.658,89.34,21.658,89.34c-0.161,0.314-0.535,0.459-0.864,0.328c-0.329-0.13-0.505-0.488-0.408-0.829l4.552-15.651
		l-0.074-0.021l0.646-2.219c-0.41-0.391-0.71-0.903-0.811-1.506c0,0-0.034-0.168-0.043-0.502c0-0.074,0.002-0.164,0.004-0.272
		c0.003-0.069,0.007-0.151,0.014-0.243c0.021-0.312,0.054-0.632,0.101-1.033c0.096-0.797,0.249-1.865,0.461-3.146
		c0.211-1.276,0.477-2.757,0.807-4.351c0.165-0.799,0.346-1.623,0.553-2.473c0.21-0.853,0.432-1.717,0.729-2.641l0.116-0.35
		l0.146-0.403l0.124-0.328l0.027-0.074l0.014-0.036l0.038-0.09l0.091-0.194l0.372-0.771l0.372-0.671
		c0.5-0.864,1.001-1.622,1.494-2.326c0.988-1.406,1.94-2.618,2.77-3.645c0.831-1.022,1.538-1.852,2.042-2.433
		c0.517-0.584,0.811-0.919,0.811-0.919c0.168-0.19,0.353-0.358,0.545-0.51c0.759-0.758,1.651-1.379,2.642-1.823
		c1.11-0.499,3.668,3.666,3.668,3.666s1.943-4.273,2.83-3.972c0.491,0.166,0.961,0.375,1.409,0.62
		c0.506,0.202,0.983,0.505,1.392,0.917c0.054,0.055,0.106,0.113,0.157,0.172c0.664,0.576,1.239,1.25,1.707,1.996
		c0.705,0.827,1.604,1.881,2.604,3.055c-0.019,0.042-0.036,0.085-0.055,0.128l8.082,9.478l6.624-0.73l-0.482-2.997
		c0,0-0.186-0.738,3.229,0.86c3.412,1.6,1.813-2.383,2.798-0.615c0.405,0.729-0.048,2.018-0.611,3.359
		c0.354,0.402,0.601,0.912,0.663,1.488c0.145,1.286-0.648,2.45-1.83,2.844c0.055,0.096,0.126,0.182,0.219,0.25
		c3.471,2.812,9.764,5.168,9.764,11.267C81.089,78.652,76.326,84.05,70.448,84.05z M41.411,45.823c0,0.203,0.165,0.369,0.367,0.369
		h1.136c0.205,0,0.37-0.166,0.37-0.369v-0.922c0-0.203-0.165-0.367-0.37-0.367h-1.136c-0.202,0-0.367,0.164-0.367,0.367V45.823z
		 M44.444,61.354L43.39,46.889c0-0.246-0.2-0.446-0.446-0.446h-1.193c-0.247,0-0.447,0.2-0.447,0.446l-1.053,14.464
		c0,0.246,2.126,2.459,2.126,2.459S44.444,61.6,44.444,61.354z M69.317,78.025v1.779h2.5v-1.924
		c1.638-0.494,2.697-1.828,2.697-3.467c0-2.24-1.649-3.199-3.085-3.783c-1.562-0.645-1.68-0.93-1.68-1.289
		c0-0.474,0.41-0.758,1.101-0.758c0.942,0,1.521,0.33,1.799,0.488l0.724,0.412l0.935-2.471l-0.521-0.303
		c-0.562-0.33-1.178-0.54-1.865-0.637v-1.715h-2.483v1.871c-1.586,0.475-2.577,1.725-2.577,3.314c0,2.057,1.65,2.982,3.26,3.615
		c1.371,0.555,1.486,0.998,1.486,1.371c0,0.584-0.518,0.963-1.32,0.963c-0.715,0-1.484-0.23-2.062-0.615l-0.758-0.506l-0.899,2.508
		l0.438,0.312C67.578,77.607,68.438,77.909,69.317,78.025z"/>
</g>
</svg>