<?xml version="1.0" encoding="iso-8859-1"?>
<!-- Uploaded to: SVG Repo, www.svgrepo.com, Generator: SVG Repo Mixer Tools -->
<!DOCTYPE svg PUBLIC "-//W3C//DTD SVG 1.1//EN" "http://www.w3.org/Graphics/SVG/1.1/DTD/svg11.dtd">
<svg fill="#000000" version="1.1" id="Capa_1" xmlns="http://www.w3.org/2000/svg" xmlns:xlink="http://www.w3.org/1999/xlink" 
	 width="800px" height="800px" viewBox="0 0 125.003 125.003"
	 xml:space="preserve">
<g>
	<g>
		<path d="M122.653,64.541l-12.188-12.024c1.079,1.445,1.723,3.231,1.723,5.169c0,2.525-1.103,4.814-2.854,6.404
			c0.016,1.109,0.016,2.111,0.016,2.193c0,0.994-0.102,3.55-0.932,6.65l2.824,2.785c1.567,1.54,3.629,2.319,5.691,2.325
			c2.058,0.002,4.125-0.769,5.695-2.312C125.785,72.645,125.794,67.637,122.653,64.541z"/>
		<path d="M57.23,108.126L57.228,108l0.003-0.125c0.018-0.693,0.496-17.094,6.104-25.418l0.229-0.316
			c0.29-0.369,1.041-1.23,2.265-2.172l-2.149-0.004v-0.002h-1.276h-1.283v0.002l-11.993,0.02l0.04,27.078l-19.245-0.022
			l0.021-47.296l32.56-32.118l19.207,18.95c2.388-1.658,5.25-2.621,8.243-2.621h4.493c4.373,0,8.496,2.02,11.214,5.333
			c1.074,0.273,2.066,0.755,2.939,1.389L68.098,10.718c-1.18-1.163-2.697-1.912-4.319-2.194V8.499
			c-0.391-0.057-0.783-0.114-1.185-0.114c-0.03,0-0.064,0.01-0.092,0.01c-0.037,0-0.062-0.01-0.097-0.01
			c-0.404,0-0.794,0.058-1.187,0.114v0.024c-1.621,0.282-3.137,1.031-4.319,2.194L2.348,64.541
			c-3.14,3.096-3.128,8.104,0.019,11.193c1.57,1.541,3.638,2.312,5.699,2.311c2.059-0.006,4.122-0.785,5.688-2.325l5.474-5.397
			l-0.021,46.296l43.295-0.073l0.409,0.001c-0.52-0.214-1.039-0.433-1.555-0.662C60.029,115.289,57.337,113.432,57.23,108.126z"/>
		<path d="M112.771,82.535c-1.027-0.318-3.521-0.637-6.158-1.162l-3.974-0.998c-1.323-0.43-2.49-0.951-3.291-1.6
			c0.756-0.774,1.447-1.696,2.068-2.758c1.995-3.42,2.707-7.416,2.707-10.014c0-0.037-0.021-3.852-0.083-4.354
			c-0.046-0.366-0.111-0.728-0.194-1.083c1.725-0.026,3.114-1.43,3.114-3.16c0-1.747-1.416-3.164-3.164-3.164h-0.999
			c-1.452-2.997-4.523-5.066-8.078-5.066h-4.494c-3.555,0-6.627,2.069-8.078,5.066h-1c-1.747,0-3.163,1.417-3.163,3.164
			c0,1.729,1.392,3.135,3.116,3.16c-0.057,0.244-0.107,0.488-0.146,0.736c-0.104,0.646-0.132,4.662-0.132,4.701
			c0,2.598,0.711,6.594,2.706,10.014c0.621,1.062,1.312,1.982,2.067,2.758c-0.801,0.647-1.968,1.17-3.291,1.6l-3.974,0.998
			c-2.638,0.525-5.13,0.844-6.158,1.162c-2.521,0.961-3.781,2.427-4.007,2.716c-4.638,6.885-5.163,22.332-5.167,22.485
			c0.042,2.055,0.652,2.758,0.863,2.844c10.322,4.594,22.474,5.759,28.434,5.759c0.057,0,0.118-0.001,0.175-0.001
			s0.119,0.001,0.175,0.001c5.96,0,18.112-1.165,28.436-5.759c0.211-0.086,0.82-0.789,0.862-2.844
			c-0.004-0.153-0.529-15.602-5.167-22.485C116.553,84.962,115.293,83.496,112.771,82.535z M102.118,66.105
			c0,1.931-0.854,2.791-2.764,2.791c-2.746,0-5.427-1.767-5.427-2.791c0-1.515,1.875-2.792,4.095-2.792
			C100.243,63.314,102.118,64.592,102.118,66.105z M86.925,63.314c2.219,0,4.095,1.278,4.095,2.792c0,1.025-2.682,2.793-5.427,2.793
			c-1.911,0-2.764-0.861-2.764-2.793C82.829,64.592,84.704,63.314,86.925,63.314z M92.474,80.157c-3.85,0-6.229-2.693-7.549-4.954
			c-0.908-1.557-1.526-3.242-1.919-4.838c0.747,0.463,1.71,0.729,2.911,0.729c2.39,0,5.024-1.347,6.624-1.347
			c1.599,0,4.101,1.347,6.489,1.347c1.202,0,2.165-0.267,2.911-0.729c-0.393,1.596-1.011,3.281-1.919,4.838
			C98.704,77.464,96.324,80.157,92.474,80.157z"/>
	</g>
</g>
</svg>